<svg xmlns="http://www.w3.org/2000/svg" width="150" height="150" viewBox="0 0 150 150" fill="none"><rect width="150" height="150" fill="#0E131F"></rect><path d="M48.5583 79.1843L32.9713 35.6032C32.8817 35.2001 32.4786 34.9985 31.9636 34.9985H18.3696C17.5634 34.9985 17.1603 35.6032 17.4739 36.2079L47.5506 114.479C47.9537 115.173 49.1407 115.173 49.4542 114.479L74.4472 49.9137H59.0617L48.5583 79.2067V79.1843Z" fill="white"></path><path d="M116.931 80.2816C124.926 77.3927 131.623 70.9876 131.623 58.7822C131.623 35.2001 109.115 34.9985 104.636 34.9985H78.7476C78.2549 34.9985 77.7397 35.4912 77.7397 35.8943V49.4882H104.636C107.033 49.4882 116.439 49.9809 116.439 58.7822C116.439 67.5836 107.951 67.9867 104.636 67.9867H77.7397V114.076C77.7397 114.479 78.2325 114.972 78.7476 114.972H91.8488C92.4534 114.972 92.9461 114.479 92.9461 114.076V82.7003H101.546L116.148 114.39C116.237 114.681 116.842 114.994 117.155 114.994H131.443C132.25 114.994 132.653 114.39 132.339 113.695C127.345 102.61 121.948 91.6136 116.954 80.304L116.931 80.2816Z" fill="white"></path></svg>